# xmcd
#
# Track frame offsets:
# 150
# 21910
# 70737
# 130427
# 152812
# 175262
# 207287
# 231075
# 250950
#
# Disc length: 3609 seconds
#
#
# Revision: 0
# Processed by: cddbd v1.4PL0 Copyright (c) Steve Scherf et al.
# Submitted via: FreeRIP 2.40 
#
DISCID=7b0e1709
DTITLE=Eric Clapton - LIVE (Unapproved)
DYEAR=1900
DGENRE=Blues
TTITLE0=Let It Rain
TTITLE1=Willie and The Hand Jive
TTITLE2=Blues Power/Have You Ever Loved A Woman
TTITLE3=Let It Grow
TTITLE4=Can't Find My Way Home
TTITLE5=Key To The Highway
TTITLE6=Layla
TTITLE7=Steady Rollin' Man
TTITLE8=Crossroads
EXTD=poor quality sound
EXTT0=
EXTT1=
EXTT2=
EXTT3=
EXTT4=
EXTT5=
EXTT6=
EXTT7=
EXTT8=
PLAYORDER=
